<svg width="41" height="41" viewBox="0 0 41 41" fill="none" xmlns="http://www.w3.org/2000/svg">
<path fill-rule="evenodd" clip-rule="evenodd" d="M20.0095 0C31.0618 0 40.0191 8.95729 40.0191 20.0095C40.0191 31.0618 31.0618 40.0191 20.0095 40.0191C8.95729 40.0191 0 31.0618 0 20.0095C0 8.95729 8.95729 0 20.0095 0Z" fill="#213147"/>
<g clip-path="url(#clip0_2_32)">
<path d="M7.07673 13.7274V26.2726C7.07673 27.0736 7.5048 27.8142 8.19811 28.2134L19.0626 34.4873C19.7559 34.8865 20.6094 34.8865 21.3027 34.4873L32.1673 28.2134C32.8606 27.8142 33.2886 27.0736 33.2886 26.2726V13.7274C33.2886 12.9264 32.8606 12.1858 32.1673 11.7866L21.3027 5.51267C20.6094 5.11349 19.7559 5.11349 19.0626 5.51267L8.19549 11.7866C7.50217 12.1858 7.07673 12.9264 7.07673 13.7274Z" fill="#213147"/>
<path d="M22.5528 22.4332L21.0034 26.6823C20.9613 26.8005 20.9613 26.9292 21.0034 27.0474L23.6689 34.3586L26.7521 32.5781L23.0518 22.4332C22.9677 22.1994 22.6368 22.1994 22.5528 22.4332Z" fill="#12AAFF"/>
<path d="M25.6596 15.2873C25.5755 15.0536 25.2446 15.0536 25.1606 15.2873L23.6112 19.5365C23.5691 19.6547 23.5691 19.7833 23.6112 19.9015L27.9785 31.8717L31.0616 30.0911L25.6596 15.2873Z" fill="#12AAFF"/>
<path d="M20.1814 5.98277C20.2575 5.98277 20.3337 6.00378 20.402 6.04054L32.1594 12.8292C32.2959 12.908 32.38 13.0551 32.38 13.21V26.7847C32.38 26.9423 32.2959 27.0867 32.1594 27.1655L20.402 33.9542C20.3363 33.9936 20.2575 34.012 20.1814 34.012C20.1052 34.012 20.0291 33.991 19.9608 33.9542L8.20336 27.1708C8.0668 27.092 7.98277 26.9449 7.98277 26.79V13.2126C7.98277 13.0551 8.0668 12.9106 8.20336 12.8318L19.9608 6.04317C20.0291 6.00378 20.1052 5.98277 20.1814 5.98277ZM20.1814 4C19.7638 4 19.3436 4.10767 18.9681 4.32565L7.21329 11.1117C6.46221 11.545 6 12.346 6 13.2126V26.7874C6 27.654 6.46221 28.455 7.21329 28.8883L18.9707 35.677C19.3462 35.8923 19.7638 36.0026 20.184 36.0026C20.6016 36.0026 21.0217 35.895 21.3973 35.677L33.1547 28.8883C33.9058 28.455 34.368 27.654 34.368 26.7874V13.2126C34.368 12.346 33.9058 11.545 33.1547 11.1117L21.3947 4.32565C21.0191 4.10767 20.5989 4 20.1814 4Z" fill="#9DCCED"/>
<path d="M12.4053 31.8874L13.4872 28.9251L15.6643 30.7345L13.6291 32.5938L12.4053 31.8874Z" fill="#213147"/>
<path d="M19.1913 12.241H16.2106C15.9874 12.241 15.7878 12.3801 15.7116 12.5902L9.32212 30.1069L12.4053 31.8874L19.4408 12.5981C19.5064 12.4248 19.3778 12.241 19.1913 12.241Z" fill="white"/>
<path d="M24.4069 12.241H21.4262C21.203 12.241 21.0034 12.3801 20.9272 12.5902L13.6317 32.5912L16.7148 34.3718L24.6564 12.5981C24.7194 12.4248 24.5907 12.241 24.4069 12.241Z" fill="white"/>
</g>
<defs>
<clipPath id="clip0_2_32">
<rect width="28.3627" height="32" fill="white" transform="translate(6 4)"/>
</clipPath>
</defs>
</svg>
